HIERARCHY
ROOT Hips
{
	OFFSET -14.64140 90.27770 -84.91600
	CHANNELS 6 Xposition Yposition Zposition Zrotation Xrotation Yrotation
	JOINT Spine
	{
		OFFSET 0.00000 13.20850 -1.60436
		CHANNELS 3 Zrotation Xrotation Yrotation
		JOINT Spine1
		{
			OFFSET 0.00000 8.61716 0.00000
			CHANNELS 3 Zrotation Xrotation Yrotation
			JOINT Spine2
			{
				OFFSET 0.00000 8.61717 0.00000
				CHANNELS 3 Zrotation Xrotation Yrotation
				JOINT Spine3
				{
					OFFSET 0.00000 8.61717 0.00000
					CHANNELS 3 Zrotation Xrotation Yrotation
					JOINT Neck
					{
						OFFSET 0.00000 11.07920 1.10792
						CHANNELS 3 Zrotation Xrotation Yrotation
						JOINT Neck1
						{
							OFFSET 0.00000 7.08032 0.00000
							CHANNELS 3 Zrotation Xrotation Yrotation
							JOINT Head
							{
								OFFSET 0.00000 7.08031 0.00000
								CHANNELS 3 Zrotation Xrotation Yrotation
								End site
								{
									OFFSET 0.00000 0.00000 0.00000
								}
							}
						}
					}
					JOINT RightShoulder
					{
						OFFSET -0.01000 7.91373 5.19711
						CHANNELS 3 Zrotation Xrotation Yrotation
						JOINT RightArm
						{
							OFFSET -18.41580 0.00000 0.00000
							CHANNELS 3 Zrotation Xrotation Yrotation
							JOINT RightForeArm
							{
								OFFSET -29.11090 0.00000 0.00000
								CHANNELS 3 Zrotation Xrotation Yrotation
								JOINT RightHand
								{
									OFFSET -24.65040 0.00000 0.00000
									CHANNELS 3 Zrotation Xrotation Yrotation
									JOINT RightHandThumb1
									{
										OFFSET -5.35114 -0.85590 3.97906
										CHANNELS 3 Zrotation Xrotation Yrotation
										JOINT RightHandThumb2
										{
											OFFSET -4.52789 0.00000 0.00000
											CHANNELS 3 Zrotation Xrotation Yrotation
											JOINT RightHandThumb3
											{
												OFFSET -2.46976 0.00000 0.00000
												CHANNELS 3 Zrotation Xrotation Yrotation
												End site
												{
													OFFSET 0.00000 0.00000 0.00000
												}
											}
										}
									}
									JOINT RightHandIndex1
									{
										OFFSET -14.26970 0.00000 2.88139
										CHANNELS 3 Zrotation Xrotation Yrotation
										JOINT RightHandIndex2
										{
											OFFSET -5.48836 0.00000 0.00000
											CHANNELS 3 Zrotation Xrotation Yrotation
											JOINT RightHandIndex3
											{
												OFFSET -3.01859 0.00000 0.00000
												CHANNELS 3 Zrotation Xrotation Yrotation
												End site
												{
													OFFSET 0.00000 0.00000 0.00000
												}
											}
										}
									}
									JOINT RightHandMiddle1
									{
										OFFSET -14.26970 0.00000 -0.09147
										CHANNELS 3 Zrotation Xrotation Yrotation
										JOINT RightHandMiddle2
										{
											OFFSET -6.17441 0.00000 0.00000
											CHANNELS 3 Zrotation Xrotation Yrotation
											JOINT RightHandMiddle3
											{
												OFFSET -3.56743 0.00000 0.00000
												CHANNELS 3 Zrotation Xrotation Yrotation
												End site
												{
													OFFSET 0.00000 0.00000 0.00000
												}
											}
										}
									}
									JOINT RightHandRing1
									{
										OFFSET -12.69180 0.00000 -3.06433
										CHANNELS 3 Zrotation Xrotation Yrotation
										JOINT RightHandRing2
										{
											OFFSET -5.62556 0.00000 0.00000
											CHANNELS 3 Zrotation Xrotation Yrotation
											JOINT RightHandRing3
											{
												OFFSET -3.56744 0.00000 0.00000
												CHANNELS 3 Zrotation Xrotation Yrotation
												End site
												{
													OFFSET 0.00000 0.00000 0.00000
												}
											}
										}
									}
									JOINT RightHandPinky1
									{
										OFFSET -11.11390 0.00000 -6.03719
										CHANNELS 3 Zrotation Xrotation Yrotation
										JOINT RightHandPinky2
										{
											OFFSET -4.52789 0.00000 0.00000
											CHANNELS 3 Zrotation Xrotation Yrotation
											JOINT RightHandPinky3
											{
												OFFSET -2.46976 0.00000 0.00000
												CHANNELS 3 Zrotation Xrotation Yrotation
												End site
												{
													OFFSET 0.00000 0.00000 0.00000
												}
											}
										}
									}
								}
							}
						}
					}
					JOINT LeftShoulder
					{
						OFFSET 0.01000 7.91373 5.19711
						CHANNELS 3 Zrotation Xrotation Yrotation
						JOINT LeftArm
						{
							OFFSET 18.41580 0.00000 0.00000
							CHANNELS 3 Zrotation Xrotation Yrotation
							JOINT LeftForeArm
							{
								OFFSET 29.11090 0.00000 0.00000
								CHANNELS 3 Zrotation Xrotation Yrotation
								JOINT LeftHand
								{
									OFFSET 24.65040 0.00000 0.00000
									CHANNELS 3 Zrotation Xrotation Yrotation
									JOINT LeftHandThumb1
									{
										OFFSET 5.35114 -0.85590 3.97906
										CHANNELS 3 Zrotation Xrotation Yrotation
										JOINT LeftHandThumb2
										{
											OFFSET 4.52789 0.00000 0.00000
											CHANNELS 3 Zrotation Xrotation Yrotation
											JOINT LeftHandThumb3
											{
												OFFSET 2.46977 0.00000 0.00000
												CHANNELS 3 Zrotation Xrotation Yrotation
												End site
												{
													OFFSET 0.00000 0.00000 0.00000
												}
											}
										}
									}
									JOINT LeftHandIndex1
									{
										OFFSET 14.26970 0.00000 2.88139
										CHANNELS 3 Zrotation Xrotation Yrotation
										JOINT LeftHandIndex2
										{
											OFFSET 5.48836 0.00000 0.00000
											CHANNELS 3 Zrotation Xrotation Yrotation
											JOINT LeftHandIndex3
											{
												OFFSET 3.01859 0.00000 0.00000
												CHANNELS 3 Zrotation Xrotation Yrotation
												End site
												{
													OFFSET 0.00000 0.00000 0.00000
												}
											}
										}
									}
									JOINT LeftHandMiddle1
									{
										OFFSET 14.26970 0.00000 -0.09147
										CHANNELS 3 Zrotation Xrotation Yrotation
										JOINT LeftHandMiddle2
										{
											OFFSET 6.17440 0.00000 0.00000
											CHANNELS 3 Zrotation Xrotation Yrotation
											JOINT LeftHandMiddle3
											{
												OFFSET 3.56744 0.00000 0.00000
												CHANNELS 3 Zrotation Xrotation Yrotation
												End site
												{
													OFFSET 0.00000 0.00000 0.00000
												}
											}
										}
									}
									JOINT LeftHandRing1
									{
										OFFSET 12.69180 0.00000 -3.06433
										CHANNELS 3 Zrotation Xrotation Yrotation
										JOINT LeftHandRing2
										{
											OFFSET 5.62556 0.00000 0.00000
											CHANNELS 3 Zrotation Xrotation Yrotation
											JOINT LeftHandRing3
											{
												OFFSET 3.56744 0.00000 0.00000
												CHANNELS 3 Zrotation Xrotation Yrotation
												End site
												{
													OFFSET 0.00000 0.00000 0.00000
												}
											}
										}
									}
									JOINT LeftHandPinky1
									{
										OFFSET 11.11390 0.00000 -6.03719
										CHANNELS 3 Zrotation Xrotation Yrotation
										JOINT LeftHandPinky2
										{
											OFFSET 4.52789 0.00000 0.00000
											CHANNELS 3 Zrotation Xrotation Yrotation
											JOINT LeftHandPinky3
											{
												OFFSET 2.46976 0.00000 0.00000
												CHANNELS 3 Zrotation Xrotation Yrotation
												End site
												{
													OFFSET 0.00000 0.00000 0.00000
												}
											}
										}
									}
								}
							}
						}
					}
					JOINT pCube4
					{
						OFFSET 0.00000 10.91090 1.10792
						CHANNELS 3 Zrotation Xrotation Yrotation
						End site
						{
							OFFSET 0.00000 0.00000 0.00000
						}
					}
				}
			}
		}
	}
	JOINT RightUpLeg
	{
		OFFSET -9.98441 0.00000 0.00000
		CHANNELS 3 Zrotation Xrotation Yrotation
		JOINT RightLeg
		{
			OFFSET 0.00000 -42.11790 0.00000
			CHANNELS 3 Zrotation Xrotation Yrotation
			JOINT RightFoot
			{
				OFFSET 0.00000 -45.00020 -0.00001
				CHANNELS 3 Zrotation Xrotation Yrotation
				JOINT RightForeFoot
				{
					OFFSET 0.00000 -3.74820 0.00000
					CHANNELS 3 Zrotation Xrotation Yrotation
					JOINT RightToeBase
					{
						OFFSET 0.00000 0.06325 14.43120
						CHANNELS 3 Zrotation Xrotation Yrotation
						End site
						{
							OFFSET 0.00000 0.00000 0.00000
						}
					}
				}
			}
		}
	}
	JOINT LeftUpLeg
	{
		OFFSET 9.98441 0.00000 0.00000
		CHANNELS 3 Zrotation Xrotation Yrotation
		JOINT LeftLeg
		{
			OFFSET 0.00000 -42.11800 0.00000
			CHANNELS 3 Zrotation Xrotation Yrotation
			JOINT LeftFoot
			{
				OFFSET 0.00000 -45.00070 0.00000
				CHANNELS 3 Zrotation Xrotation Yrotation
				JOINT LeftForeFoot
				{
					OFFSET 0.00000 -3.74824 0.00000
					CHANNELS 3 Zrotation Xrotation Yrotation
					JOINT LeftToeBase
					{
						OFFSET 0.00000 0.06325 14.43110
						CHANNELS 3 Zrotation Xrotation Yrotation
						End site
						{
							OFFSET 0.00000 0.00000 0.00000
						}
					}
				}
			}
		}
	}
}
MOTION
Frames: 4
Frame Time: 0.050000
-0.00504443931034486 0.024277232721867464 -0.02174902175739655 -0.02299090349634395 -0.030350454492341035 0.02516267134789792 -3.6767720757076146 6.1365294711178295 -0.6942376540510744 -1.0592920691329017 4.069303821492982 0.4192203593124079 -1.0613457082407995 0.7596582668661657 -0.03226764202419724 1.247233365499638 1.0107764973335838 -0.7655593768698961 0.05142813299597316 9.705035377857703 -1.200151885159443 -0.4379418316575959 -1.6917843035685032 -6.014744743916491 0.05584903764169861 -16.2363915626138 -0.4187969628864565 4.6905206701214315 -0.7945039286006537 -14.434459306860733 62.644012373374935 17.455880756125218 13.003737231373835 18.001152532514986 6.151546089485813 94.29104441957415 13.816376448126112 -0.31974490598973254 -7.9345698550795385 4.563021849347794 -0.0873367712424451 -1.5909216303608231 -0.020018381604990775 0.0005756992053530405 -56.209340690612734 0.04489199591228863 0.018907176039857157 -56.214339836428344 -38.76181109264477 -0.019214934037691363 -0.015695020070556235 0.04736031022689741 0.0007516950760097296 -0.02223408478359256 0.03509624862857037 0.02759631469037447 -0.025252872971403148 -36.65219472339667 -0.014867444920159324 -0.013366323463844965 0.045820672781185394 -0.04413048604884879 -0.020774733238564387 0.04691657351280232 -0.016576324535261137 0.03499942360060257 -19.797129476516293 -0.0009409294389115515 -0.03906254404728062 0.04899768937990555 0.023323963690521345 -0.0006901142130068298 0.03000111383361238 -0.024575106427265306 0.023022524467699656 24.072453372477298 0.04328363706423639 -0.02173504893833491 28.889772375753832 -0.019832949815049558 -0.015007890091931786 28.835163327744812 -0.04814872548329618 -0.04809638696466528 -4.954333689178839 -0.5128827416273147 12.856907787425381 -62.562782489810196 28.192058246758297 -7.297389420280957 -2.2250834347069146 3.8306913904222175 -63.88058547132355 -13.580307303830297 3.8936844616353 0.41674245309724556 -0.42677835568561906 0.07089489350433364 -8.103813911370517 -0.018739247116056793 -0.015163820886117365 44.60559638763449 0.005572405916079571 -0.045951864746841736 44.55086325132484 12.416357474689248 -0.0025975963828907666 -0.020723555993182412 0.03232422575824416 -0.03420727243759299 -0.03997930732087576 0.0202284811736651 -0.03402648480141915 -0.03808598141015885 11.146916322924755 -0.026697306106757534 -0.0064240963660462695 -0.020173551940257252 0.03353483396334541 -0.031815101336468844 0.012976303993513261 0.035513918975054015 -0.015563358646092795 4.726796425506348 0.005837005691921476 0.02187783443651078 0.04954706552053868 -0.014641777251778416 -0.028956565003451923 -0.04624980583224627 0.04422006746488929 0.038343950406989694 -5.614974821206467 0.017968867197887296 0.0365069943308111 -6.683094994617437 0.003058034455687976 -0.0010971145854935895 -6.713993521688145 0.03417919865931589 -0.007818497728870347 0.03442055749170538 -0.037186635308960464 -0.01869079283877627 8.05386410126388 3.489498024282594 -19.193191073427315 0.042368051308656625 10.425624685450202 0.00355017694010098 -5.626797477313932 -15.613710798362746 3.1778219421833644 0.04919179129972658 -0.025524733777521715 -0.0016205620365490202 0.04010303928029197 4.717568411418141 0.04020953807722476 12.468240307952229 -8.284884969425406 6.902143617009075 -0.029527084945695455 46.334147349791756 -0.02115791568761559 -4.289058705079331 -14.727798881483038 -3.87686759950559 0.009185598975453742 -0.018774631266919597 0.03515247121364474 0.020080508817315632 -10.703639806288038 -0.015218062417069293 
-0.04390543997080917 -0.047461279410447116 -0.016792735852438002 0.009684012577466752 -0.013296678435527096 -0.011864537939802001 -3.603564669652364 6.234134854177977 -0.7014686403496565 -1.043594759205587 4.0629635379691305 0.47115802366532183 -1.0468688396355292 0.7990660183478508 -0.053091912987314784 1.2600287184380603 1.082020997904091 -0.7844650440376781 -0.060124709933750506 9.492286170267594 -1.0941087118606432 -0.4266215635548915 -1.7169958239840881 -5.945676089988136 -0.012572408837871286 -16.368214138260683 -0.39199201454619687 4.779401085757131 -0.7999024357859528 -14.385078186303952 62.68158094874184 17.00721226970703 12.539066717576768 19.584810080759947 6.671668573910007 93.8570433035873 14.21915883230459 -0.25934702781014574 -8.135668013477177 4.541835665201977 -0.1289725504544134 -1.5563104268581955 0.025896055572351046 -0.02419830792673447 -56.199818717046455 -0.00933946579520606 0.03242097627668091 -56.24788622681465 -38.73192909524582 0.0014678398492225314 0.020731327598562437 -0.01868445812936856 0.0020445205345637585 0.0002631736158957478 -0.04086059659852911 -0.0437574762453903 -0.007057086943026778 -36.72604442410944 0.018648902843256765 -0.040379396085775905 0.023739568431134547 0.013478345414131435 0.022709306079132463 0.032403272284928716 0.025118624172224754 -0.027656320126759348 -19.76323304151504 0.0491492391775199 -0.02755245391092894 0.04294681388193071 0.034418245582705176 0.01406105506318917 -0.016572588319571736 0.01472868082765821 -0.02777186470601878 24.023099030547222 0.006107204784241379 0.04847114747987854 28.887181923991314 0.04016641081783461 -0.02900008443674767 28.82666293170193 -0.035963575310172254 0.02627779932556618 -4.9360454246962115 -0.5435382590238185 12.734570307313723 -62.22909401042111 28.238846044913693 -7.732728915119487 -3.8183148271384546 4.426085975206246 -66.34893827779288 -14.009924539177883 3.3763595899839274 0.5317597689927819 -0.5073347234418122 0.023119828041433248 -8.097733167346675 -0.008743382520477717 0.037966109237908864 44.61042923967719 0.03745400412169482 -0.005564423667831501 44.53663550031788 12.502278665702601 0.00663198075761874 0.013382681807149136 -0.012073397738516367 -0.010194535419294846 0.02458881858260036 0.012906504098488774 -0.03987999502714359 0.014177716156524718 11.130456244084852 0.03154675609694304 0.0189014411347531 0.049474887975477874 -0.034071028295706914 -0.03239566810310283 0.019953856329356714 -0.006911833023268184 -0.014425637962847881 4.777239767240341 -0.0013831105594381554 0.009951978233300683 -0.046149880253615 0.01685881958572695 0.013832937358258173 0.031176640667147523 -0.015266124663233615 -0.03067666954870199 -5.5708712312122 -0.0013543759306289694 -0.023112985413180222 -6.691446849992822 -0.010144744240082935 -0.021957468169968766 -6.706903383977461 -0.022252475756311247 0.03435094066847649 0.0005475521204475359 0.019705272127045616 0.02925054848234992 8.00990762504295 3.4724247114488365 -19.242676828075837 -0.04654916252444243 10.394282322401144 0.020150485909814185 -5.6409994536926344 -15.643143346464992 3.1828690028685855 -0.04033301691062194 -0.005989773823274051 0.0032240755289884384 0.04733195650818424 4.681313452115663 -0.04095551820309364 12.413358928093846 -8.21614855836433 6.875862455392064 -0.020757068039827888 46.33340403764089 -0.006074552392333203 -4.3167265693931425 -14.784869800155446 -3.8808355065344995 0.018176149220415702 0.03274994423514802 0.0156250312881998 0.008912564119914698 -10.77915213781794 0.03663206669592531 
0.006459962699167734 -0.031064684121191583 -0.0024379312966522925 0.031517640430679096 -0.011299834915288692 0.02735758082522573 -3.4982664295508914 6.274420791201922 -0.7033056216750984 -1.0088623921563833 4.081071869375116 0.48664823948696845 -1.0094624208543448 0.7782744622382554 -0.20293078803467857 1.1746275870871676 0.9619113280728823 -0.8397867191674063 -0.08665209259828648 9.383341608079215 -1.0639066053432304 -0.4820878636667706 -1.7694153154414243 -5.705091952498466 0.023802833544457915 -16.394661909716636 -0.37909548994038067 4.736942873125498 -0.7974826814754863 -14.24185311737277 63.10529442980295 16.90041344728351 12.100830239337268 21.64127606636324 7.211707837677126 93.81483010093011 14.629560711824796 -0.23113010993403107 -8.27254643643798 4.523333952814024 -0.17272843728983356 -1.5784687732677947 -0.04450623673096105 0.024011991556348953 -56.247140887197546 0.016725737844400155 -0.03933199476041488 -56.26924320297681 -38.80365893533315 0.005821808390853008 0.007040418156328667 -0.025470939431039716 -0.00242322508297358 0.010156121734916706 0.04047202199180655 0.018692841082405792 -0.020421332838773596 -36.68429662049515 -0.010035487401900208 0.027586737475469105 -0.015160062903988991 -0.00016272045583846882 -0.0142966892665056 -0.003104679474515079 -0.0040562398067099876 -0.011004241516780037 -19.76449367209793 0.02924703114400016 0.014185819029329257 0.02915100363594679 0.04259305843942436 -0.016402280630486925 -0.04505205872929668 -0.035690987154523963 0.029565940828298738 24.059374908141365 -0.009143413080269109 -0.01087883411559452 28.851123966997523 -0.010073610093510764 -0.02820339068948421 28.887363652641824 0.03712648966998627 -0.04290949476844039 -4.635619177534101 -0.444484387062013 12.659182918426565 -62.11354707140112 28.530611994729515 -8.238651695565633 -5.912462961240781 5.047723701550473 -69.4109154419023 -14.149491629834623 2.7680367916212685 0.8070279730749591 -0.49337931668783697 0.08272764375795524 -8.153450986790087 -0.039868333175714935 -0.0026518509575781685 44.571764929827296 0.005206418812603654 0.0416064435500879 44.51897604931377 12.50650902362559 -0.021470153400690323 0.01783421517384849 -0.049936487033737806 0.022205282970059744 0.00012150232770343338 -0.025682498336731304 0.022883827323231732 0.03589774356755478 11.118159234333698 -0.01518485934360298 -0.010798231836945962 0.04442820397174917 -0.03512893901013115 -0.03630821034037898 -0.024671020759612403 0.010617913313700657 0.00591666899518022 4.7531796177374455 -0.03777379398841333 -0.03739423515140031 -0.04886828389224401 -0.030915531756803283 -0.015090428586295937 0.04429366061860146 -0.035908509125476704 0.04902283562333681 -5.60936788413012 0.011451106321232812 -0.032336765144339 -6.7319319244485145 0.0005275752962762124 -0.003584597357946564 -6.73029620739382 0.018646063178972102 0.03405188019515526 0.028788256119482537 0.025377861866831986 -0.019165663932869996 8.050031660866129 3.5092375341787823 -19.211938227829833 -0.004673464927277067 10.368722671974739 -0.015170644500336523 -5.6650476288288765 -15.656764056901975 3.184010396231427 -0.010372018043444125 0.03420231655807172 0.03129728688495135 0.006105335558939128 4.687686948727275 0.02453646156147972 12.458946862182431 -8.21280423932049 6.924979507544931 0.017694155983442192 46.38793423580952 -0.023417714305067637 -4.281955375390989 -14.717602694288955 -3.8458195354269304 0.019895635700308126 0.04963111456064397 0.03043695623185726 0.043616450276277356 -10.791425284004942 -0.00933464369697351 
0.043811007266595176 0.011673537864002194 -0.0198972641446538 -0.020201692361830687 -0.032802719390384594 -0.037533291250479106 -3.2611139076402296 6.213116496877155 -0.7706260245570915 -1.0269457635294372 4.0136441636330575 0.3950120942778712 -0.9835981187147314 0.7049867753704155 -0.3043593898553445 1.1094148918872995 1.008980449178667 -0.8415625718149357 -0.13155661565724197 9.482431061355783 -1.0301104387937061 -0.4091346825968075 -1.7272454370239794 -5.426146033924359 -0.031557324751119505 -16.44184085623082 -0.39870648039105405 4.553784946592968 -0.7262307531483092 -14.132182041623217 63.61875298514513 16.61698160272534 11.603701119364754 24.0570527231239 7.710541908512548 94.0759310269319 14.956451900399768 -0.2580827846079548 -8.437220899791924 4.529327317967726 -0.15382540787326257 -1.543125736636724 -0.00791116730558138 -0.037341372687215324 -56.205239072029755 -0.04713458391809659 -0.02330485424786007 -56.24426763862236 -38.79019620169187 0.04866985393455751 0.02298409097569678 -0.03371833718728302 -0.026651675365373072 0.018397419854236815 -0.02773898690532558 0.04823881189237242 0.04900255560582559 -36.6569633496649 -0.04283452864286045 0.032749964779865984 -0.031137850076862147 0.01646327335916113 -0.015005601399383575 -0.02730161834935304 0.01552001614171618 0.025802582180424964 -19.728487150043545 -0.004690687263531821 0.00559111967274906 -0.043541670230473985 -0.03873142738313385 -0.03858013235910704 -0.02045183639304055 0.038743912085746665 -0.0469648233676163 24.09943977064373 -0.003980006221847757 -0.010296276569968494 28.89454360258513 -0.02185251049597568 -0.002128247948783606 28.823886231536925 -0.03159229503703296 -0.030878656080713413 -4.18011010682511 -0.31933688092590773 12.445447340220264 -62.27028608418291 28.698767051112892 -8.865294742240465 -7.9832952036876375 5.6110259018636786 -73.00697881593017 -14.218146298999997 2.302587257104356 0.925283301429896 -0.45660943705705925 0.09965558546789882 -8.168215470983426 0.007810919609013555 -0.01521969146406274 44.610627262790295 0.033832821487065796 0.022794892964911922 44.594017159390646 12.436123682902043 -0.034889372420344525 -0.016842111027767406 0.029620168057576408 -0.027635104310262927 0.03697827868052603 -0.015234752800762757 -0.012552241958243508 0.0019719878466170912 11.07062265916556 -0.007609859027287206 -0.005371553333883125 -0.03921286427742264 -0.019775497743957048 0.03479588204296115 -0.00989231862862524 -0.011795988142835081 -0.036355267611845994 4.8032746548424665 -0.026321001880219103 0.022682342525676382 -0.004394499075491442 -0.032072875795796395 -0.018405739923756017 -0.04522607707045168 0.01978504829820107 0.04478134810353619 -5.5723787045086945 -0.01242802229374604 -0.0459549176956075 -6.682055428385627 0.043763089063668534 0.012579639980943106 -6.7196552004123244 0.045219865211619026 -0.03505916864791011 0.008455924983266644 -0.025055012653359306 -0.02079618191094319 8.010630885554535 3.5160389982336 -19.189551970821146 0.007141480746440737 10.390406544497353 0.01900704653855666 -5.5767968642600225 -15.692623068360174 3.1516228730114553 0.014256230039881142 -0.03868669899854511 0.03189223580458954 0.043062395363426605 4.738145856298898 0.012090480459525278 12.455182449623651 -8.20363922869023 6.92434223904872 -0.04406621569341678 46.40528795249321 -0.022109876271460646 -4.302097404289247 -14.778660993737363 -3.8095523338111983 0.031173218065122934 -0.024200235256515646 0.038492057995683136 0.04018838425790124 -10.73050590504234 -0.033081294154663134 
